# xmcd
#
# Track frame offsets:
#	150
#	26667
#	36592
#	51017
#	68724
#	77747
#	96324
#	113505
#	129341
#
# Disc length: 1806 seconds
#
# Revision: 1
# Processed by: cddbd v1.5.2PL0 Copyright (c) Steve Scherf et al.
# Submitted via: audiograbber 1.83.01
#
DISCID=71070c09
DTITLE=Matthew Frantz - Odessa Days 
DYEAR=2012
DGENRE=Blues
TTITLE0=The Epic of Harvey Dylan
TTITLE1=London Honey Bee 
TTITLE2=Docks
TTITLE3=Willow Bee Widow
TTITLE4=Not for People 
TTITLE5=Silver Dollar Stream 
TTITLE6=Long Ride
TTITLE7=Sweet Lullaby 
TTITLE8=Dream 
EXTD=
EXTT0=
EXTT1=
EXTT2=
EXTT3=
EXTT4=
EXTT5=
EXTT6=
EXTT7=
EXTT8=
PLAYORDER=
